<svg width="37" height="27" viewBox="0 0 37 27" fill="none" xmlns="http://www.w3.org/2000/svg">
<path d="M16.9634 5.19231C16.7803 5.1923 16.6046 5.11953 16.4751 4.99002C16.3455 4.86051 16.2727 4.68485 16.2726 4.50168C16.2717 3.67439 15.9427 2.88128 15.3577 2.29628C14.7727 1.71127 13.9795 1.38218 13.1521 1.38123C12.9689 1.38123 12.7933 1.30844 12.6637 1.17892C12.5342 1.04941 12.4614 0.873753 12.4614 0.690591C12.4614 0.507429 12.5342 0.331773 12.6637 0.202258C12.7933 0.0727425 12.9689 0 13.1521 0C14.3456 0.00145615 15.4897 0.47617 16.3337 1.32C17.1775 2.16384 17.6523 3.30789 17.6537 4.50124C17.6538 4.68441 17.5812 4.86012 17.4517 4.9897C17.3223 5.1193 17.1467 5.1922 16.9634 5.19231Z" fill="white"/>
<path d="M19.3832 5.19232C19.1999 5.1923 19.0244 5.11952 18.8948 4.99C18.7653 4.86048 18.6925 4.6848 18.6924 4.50163C18.6939 3.30807 19.1687 2.16385 20.0126 1.31994C20.8566 0.476027 22.0007 0.00133682 23.1941 0C23.3773 0 23.5529 0.0727927 23.6825 0.202319C23.8119 0.331845 23.8847 0.507517 23.8847 0.690694C23.8847 0.873871 23.8119 1.04954 23.6825 1.17907C23.5529 1.3086 23.3773 1.38134 23.1941 1.38134C22.3669 1.38227 21.5737 1.71137 20.9887 2.29642C20.4037 2.88148 20.0747 3.67472 20.0737 4.50211C20.0737 4.68522 20.0008 4.86075 19.8713 4.99017C19.7418 5.1196 19.5662 5.19232 19.3832 5.19232Z" fill="white"/>
<path d="M10.2565 21.9284C7.83813 22.7675 5.80854 22.6824 4.4636 22.4304C2.6111 22.0837 1.5318 21.3212 1.36579 20.9902C1.27789 20.8145 1.34946 20.7643 1.41765 20.7229L9.80539 16.0194V14.5386L0.746379 19.6185L0.731018 19.6269C0.0309789 20.0443 -0.192345 20.8166 0.174787 21.5488C0.632837 22.4618 2.25511 23.3211 4.21193 23.6875C4.92446 23.8196 5.64842 23.8857 6.37394 23.8847C7.7983 23.8847 9.51982 23.6347 11.4231 22.8613L11.0849 22.6723C10.7551 22.4871 10.4721 22.233 10.2565 21.9284Z" fill="white"/>
<path d="M35.6151 19.6265C35.6099 19.6235 35.6048 19.6206 35.5996 19.6181L26.5386 14.5386V16.0193L34.9281 20.7224C34.9969 20.7636 35.0686 20.8144 34.9805 20.9897C34.8145 21.3207 33.7349 22.0832 31.882 22.4299C30.5369 22.6815 28.5071 22.7667 26.0886 21.9279C25.8746 22.2315 25.5936 22.4853 25.2658 22.671L24.9231 22.8624C26.8259 23.635 28.5467 23.8847 29.9709 23.8847C30.6966 23.8857 31.4206 23.8196 32.1333 23.6875C34.0906 23.3211 35.7133 22.4619 36.1713 21.5489C36.5387 20.8161 36.3151 20.0439 35.6151 19.6265Z" fill="white"/>
<path d="M25.7752 10.472L19.4028 6.57987C19.0299 6.35125 18.6066 6.2308 18.1757 6.23071C17.7448 6.23062 17.3215 6.35085 16.9485 6.57931L10.5744 10.4724C10.202 10.7005 9.89267 11.0279 9.67714 11.422C9.46168 11.8161 9.34747 12.263 9.34607 12.7183V20.508C9.34714 20.9641 9.4611 21.4119 9.67672 21.8068C9.89234 22.2017 10.2019 22.53 10.5748 22.7588L16.9456 26.6499C17.3186 26.879 17.7421 26.9997 18.1734 27C18.6046 27.0002 19.0283 26.88 19.4014 26.6513L25.7776 22.7573C26.1487 22.5274 26.4567 22.199 26.6711 21.8045C26.8855 21.41 26.9989 20.9632 26.9999 20.5081V12.7184C26.9984 12.2635 26.8846 11.8169 26.6698 11.4229C26.455 11.0289 26.1466 10.7011 25.7752 10.472ZM11.2107 11.6371L13.2725 10.3778H23.0774L25.1368 11.6356C25.316 11.746 25.4648 11.9039 25.5686 12.0938C25.6723 12.2838 25.7274 12.499 25.7283 12.7184V14.4262H10.6175V12.7187C10.6185 12.4993 10.6737 12.2839 10.7779 12.0942C10.8819 11.9044 11.0311 11.7469 11.2107 11.6371ZM25.1399 21.5937L23.0991 22.8401H13.2514L11.2114 21.5942C11.0313 21.4838 10.8817 21.3255 10.7775 21.1349C10.6733 20.9444 10.6181 20.7282 10.6175 20.5081V18.7921H25.7288V20.5081C25.7283 20.7276 25.6737 20.9431 25.5704 21.1336C25.4672 21.324 25.3188 21.4826 25.1399 21.5937Z" fill="white"/>
</svg>
