<svg width="200" height="158" viewBox="0 0 200 158" fill="none" xmlns="http://www.w3.org/2000/svg">
<g clip-path="url(#clip0)">
<path d="M0 22.5693L100 80.4013V118.956L33.3333 80.4013V157.51L0 138.233V22.5693Z" fill="#2891F9"/>
<path d="M33.3335 157.506V80.3975L66.6668 99.6748V138.229L33.3335 157.506Z" fill="#2BBDF7"/>
<path d="M0 22.5673L33.3333 3.29004L133.333 61.1221L100 80.399L0 22.5673Z" fill="#2B6DEF"/>
<path d="M100 80.3994L133.333 61.1221V99.6767L100 118.954V80.3994Z" fill="#2BBDF7"/>
<path d="M133.333 22.5693V138.233L166.666 157.51V41.8467L133.333 22.5693Z" fill="#2891F9"/>
<path d="M200 22.5693L166.667 41.8467V157.51L200 138.233V22.5693Z" fill="#2BBDF7"/>
<path d="M166.666 3.29004L199.999 22.5673L166.666 41.8444L133.333 22.5673L166.666 3.29004Z" fill="#2B6DEF"/>
</g>
<defs>
<clipPath id="clip0">
<rect width="200" height="157.692" fill="white"/>
</clipPath>
</defs>
</svg>
